<mxfile host="app.diagrams.net" modified="2021-11-25T05:17:35.057Z" agent="5.0 (Windows NT 10.0; Win64; x64) AppleWebKit/537.36 (KHTML, like Gecko) Chrome/96.0.4664.45 Safari/537.36" etag="zbKjbMX0kaipUG_i8TcX" version="15.8.3" type="github">
  <diagram id="E8eJPNiZtKLYMUr9FmN8" name="Page-1">
    <mxGraphModel dx="1422" dy="794" grid="1" gridSize="10" guides="1" tooltips="1" connect="1" arrows="1" fold="1" page="1" pageScale="1" pageWidth="850" pageHeight="1100" math="0" shadow="0">
      <root>
        <mxCell id="0" />
        <mxCell id="1" parent="0" />
        <mxCell id="4zlUSUZVqIUbpaDZJhGe-18" value="" style="group;container=1;" vertex="1" connectable="0" parent="1">
          <mxGeometry x="170" y="250" width="350" height="260" as="geometry" />
        </mxCell>
        <mxCell id="4zlUSUZVqIUbpaDZJhGe-13" value="Rt" style="whiteSpace=wrap;html=1;aspect=fixed;fontSize=24;fontStyle=1;strokeWidth=3;fillColor=#f8cecc;strokeColor=none;" vertex="1" parent="4zlUSUZVqIUbpaDZJhGe-18">
          <mxGeometry x="175" y="86.66666666666666" width="173.33333333333331" height="173.33333333333331" as="geometry" />
        </mxCell>
        <mxCell id="4zlUSUZVqIUbpaDZJhGe-1" value="Km" style="whiteSpace=wrap;html=1;aspect=fixed;fontSize=24;fontStyle=1;strokeWidth=3;fillColor=#fff2cc;strokeColor=default;" vertex="1" parent="4zlUSUZVqIUbpaDZJhGe-18">
          <mxGeometry width="86.66666666666666" height="86.66666666666666" as="geometry" />
        </mxCell>
        <mxCell id="4zlUSUZVqIUbpaDZJhGe-8" value="k2" style="whiteSpace=wrap;html=1;aspect=fixed;fontSize=24;fontStyle=1;strokeWidth=3;fillColor=#fff2cc;strokeColor=default;" vertex="1" parent="4zlUSUZVqIUbpaDZJhGe-18">
          <mxGeometry y="173.33333333333331" width="86.66666666666666" height="86.66666666666666" as="geometry" />
        </mxCell>
        <mxCell id="4zlUSUZVqIUbpaDZJhGe-10" value="Rm" style="whiteSpace=wrap;html=1;aspect=fixed;fontSize=24;fontStyle=1;strokeWidth=1;strokeColor=default;fillColor=#fff2cc;" vertex="1" parent="4zlUSUZVqIUbpaDZJhGe-18">
          <mxGeometry x="87.5" y="86.66666666666666" width="86.66666666666666" height="86.66666666666666" as="geometry" />
        </mxCell>
        <mxCell id="4zlUSUZVqIUbpaDZJhGe-7" value="k3" style="whiteSpace=wrap;html=1;aspect=fixed;fontSize=24;fontStyle=1;strokeWidth=3;fillColor=#f8cecc;strokeColor=default;" vertex="1" parent="4zlUSUZVqIUbpaDZJhGe-18">
          <mxGeometry y="86.66666666666666" width="86.66666666666666" height="86.66666666666666" as="geometry" />
        </mxCell>
        <mxCell id="4zlUSUZVqIUbpaDZJhGe-6" value="k4" style="whiteSpace=wrap;html=1;aspect=fixed;fontSize=24;fontStyle=1;strokeWidth=3;fillColor=#f8cecc;strokeColor=default;" vertex="1" parent="4zlUSUZVqIUbpaDZJhGe-18">
          <mxGeometry x="87.5" width="86.66666666666666" height="86.66666666666666" as="geometry" />
        </mxCell>
        <mxCell id="4zlUSUZVqIUbpaDZJhGe-9" value="k1" style="whiteSpace=wrap;html=1;aspect=fixed;fontSize=24;fontStyle=1;strokeWidth=3;fillColor=#d5e8d4;strokeColor=default;" vertex="1" parent="4zlUSUZVqIUbpaDZJhGe-18">
          <mxGeometry x="87.5" y="173.33333333333331" width="86.66666666666666" height="86.66666666666666" as="geometry" />
        </mxCell>
        <mxCell id="4zlUSUZVqIUbpaDZJhGe-11" value="k5" style="whiteSpace=wrap;html=1;aspect=fixed;fontSize=24;fontStyle=1;strokeWidth=3;fillColor=#fff2cc;strokeColor=default;" vertex="1" parent="4zlUSUZVqIUbpaDZJhGe-18">
          <mxGeometry x="175" width="86.66666666666666" height="86.66666666666666" as="geometry" />
        </mxCell>
        <mxCell id="4zlUSUZVqIUbpaDZJhGe-12" value="k6" style="whiteSpace=wrap;html=1;aspect=fixed;fontSize=24;fontStyle=1;strokeWidth=3;fillColor=#d5e8d4;strokeColor=default;" vertex="1" parent="4zlUSUZVqIUbpaDZJhGe-18">
          <mxGeometry x="262.5" width="86.66666666666666" height="86.66666666666666" as="geometry" />
        </mxCell>
        <mxCell id="4zlUSUZVqIUbpaDZJhGe-15" value="" style="endArrow=none;html=1;rounded=0;fontSize=24;exitX=0;exitY=1;exitDx=0;exitDy=0;entryX=1;entryY=1;entryDx=0;entryDy=0;strokeWidth=3;" edge="1" parent="4zlUSUZVqIUbpaDZJhGe-18" source="4zlUSUZVqIUbpaDZJhGe-13" target="4zlUSUZVqIUbpaDZJhGe-13">
          <mxGeometry width="50" height="50" relative="1" as="geometry">
            <mxPoint x="306.25" y="292.5" as="sourcePoint" />
            <mxPoint x="360.9375" y="238.33333333333331" as="targetPoint" />
          </mxGeometry>
        </mxCell>
        <mxCell id="4zlUSUZVqIUbpaDZJhGe-16" value="" style="endArrow=none;html=1;rounded=0;fontSize=24;exitX=1;exitY=1;exitDx=0;exitDy=0;strokeWidth=3;" edge="1" parent="4zlUSUZVqIUbpaDZJhGe-18" source="4zlUSUZVqIUbpaDZJhGe-12">
          <mxGeometry width="50" height="50" relative="1" as="geometry">
            <mxPoint x="185.9375" y="270.8333333333333" as="sourcePoint" />
            <mxPoint x="350" y="260" as="targetPoint" />
          </mxGeometry>
        </mxCell>
        <mxCell id="4zlUSUZVqIUbpaDZJhGe-17" value="" style="endArrow=none;dashed=1;html=1;dashPattern=1 3;strokeWidth=2;rounded=0;fontSize=24;exitX=1;exitY=0;exitDx=0;exitDy=0;entryX=1;entryY=0;entryDx=0;entryDy=0;" edge="1" parent="4zlUSUZVqIUbpaDZJhGe-18" source="4zlUSUZVqIUbpaDZJhGe-9" target="4zlUSUZVqIUbpaDZJhGe-10">
          <mxGeometry width="50" height="50" relative="1" as="geometry">
            <mxPoint x="306.25" y="292.5" as="sourcePoint" />
            <mxPoint x="360.9375" y="238.33333333333331" as="targetPoint" />
          </mxGeometry>
        </mxCell>
        <mxCell id="4zlUSUZVqIUbpaDZJhGe-61" value="" style="ellipse;whiteSpace=wrap;html=1;rounded=1;fontSize=30;strokeColor=default;strokeWidth=2;fillColor=#000000;" vertex="1" parent="1">
          <mxGeometry x="60" y="570" width="40" height="40" as="geometry" />
        </mxCell>
        <mxCell id="4zlUSUZVqIUbpaDZJhGe-64" value="" style="ellipse;whiteSpace=wrap;html=1;rounded=1;fontSize=30;strokeColor=default;strokeWidth=2;fillColor=none;" vertex="1" parent="1">
          <mxGeometry x="150" y="620" width="40" height="40" as="geometry" />
        </mxCell>
        <mxCell id="4zlUSUZVqIUbpaDZJhGe-66" value="" style="endArrow=none;html=1;rounded=0;fontSize=30;strokeWidth=3;" edge="1" parent="1" source="4zlUSUZVqIUbpaDZJhGe-64" target="4zlUSUZVqIUbpaDZJhGe-61">
          <mxGeometry width="50" height="50" relative="1" as="geometry">
            <mxPoint x="110" y="430" as="sourcePoint" />
            <mxPoint x="160" y="380" as="targetPoint" />
          </mxGeometry>
        </mxCell>
        <mxCell id="4zlUSUZVqIUbpaDZJhGe-67" value="&lt;font style=&quot;font-size: 18px&quot;&gt;Rt = M&lt;/font&gt;" style="text;html=1;strokeColor=none;fillColor=none;align=center;verticalAlign=middle;whiteSpace=wrap;rounded=0;fontSize=30;fontStyle=1" vertex="1" parent="1">
          <mxGeometry x="130" y="580" width="60" height="30" as="geometry" />
        </mxCell>
        <mxCell id="4zlUSUZVqIUbpaDZJhGe-68" value="" style="ellipse;whiteSpace=wrap;html=1;rounded=1;fontSize=30;strokeColor=default;strokeWidth=2;fillColor=none;" vertex="1" parent="1">
          <mxGeometry x="240" y="670" width="40" height="40" as="geometry" />
        </mxCell>
        <mxCell id="4zlUSUZVqIUbpaDZJhGe-69" value="" style="endArrow=none;html=1;rounded=0;fontSize=30;strokeWidth=3;" edge="1" parent="1" source="4zlUSUZVqIUbpaDZJhGe-68" target="4zlUSUZVqIUbpaDZJhGe-64">
          <mxGeometry width="50" height="50" relative="1" as="geometry">
            <mxPoint x="218" y="489.91999999999996" as="sourcePoint" />
            <mxPoint x="210" y="750" as="targetPoint" />
          </mxGeometry>
        </mxCell>
        <mxCell id="4zlUSUZVqIUbpaDZJhGe-70" value="&lt;span style=&quot;font-size: 18px&quot;&gt;Rm = K&lt;/span&gt;" style="text;html=1;strokeColor=none;fillColor=none;align=center;verticalAlign=middle;whiteSpace=wrap;rounded=0;fontSize=30;fontStyle=1" vertex="1" parent="1">
          <mxGeometry x="220" y="630" width="70" height="30" as="geometry" />
        </mxCell>
        <mxCell id="4zlUSUZVqIUbpaDZJhGe-71" value="" style="ellipse;whiteSpace=wrap;html=1;rounded=1;fontSize=30;strokeColor=default;strokeWidth=2;fillColor=none;" vertex="1" parent="1">
          <mxGeometry x="332.52" y="720.29" width="40" height="40" as="geometry" />
        </mxCell>
        <mxCell id="4zlUSUZVqIUbpaDZJhGe-72" value="" style="endArrow=none;html=1;rounded=0;fontSize=30;strokeWidth=3;" edge="1" parent="1" source="4zlUSUZVqIUbpaDZJhGe-71" target="4zlUSUZVqIUbpaDZJhGe-68">
          <mxGeometry width="50" height="50" relative="1" as="geometry">
            <mxPoint x="310.52" y="540.2099999999999" as="sourcePoint" />
            <mxPoint x="280.0031455224396" y="700.0028586235774" as="targetPoint" />
          </mxGeometry>
        </mxCell>
        <mxCell id="4zlUSUZVqIUbpaDZJhGe-73" value="" style="ellipse;whiteSpace=wrap;html=1;rounded=1;fontSize=30;strokeColor=default;strokeWidth=2;fillColor=none;" vertex="1" parent="1">
          <mxGeometry x="425.03999999999996" y="770.29" width="40" height="40" as="geometry" />
        </mxCell>
        <mxCell id="4zlUSUZVqIUbpaDZJhGe-74" value="" style="endArrow=none;html=1;rounded=0;fontSize=30;strokeWidth=3;" edge="1" parent="1" source="4zlUSUZVqIUbpaDZJhGe-73" target="4zlUSUZVqIUbpaDZJhGe-71">
          <mxGeometry width="50" height="50" relative="1" as="geometry">
            <mxPoint x="403.03999999999996" y="590.2099999999999" as="sourcePoint" />
            <mxPoint x="372.52314552243956" y="750.0028586235774" as="targetPoint" />
          </mxGeometry>
        </mxCell>
        <mxCell id="4zlUSUZVqIUbpaDZJhGe-75" value="" style="ellipse;whiteSpace=wrap;html=1;rounded=1;fontSize=30;strokeColor=default;strokeWidth=2;fillColor=none;" vertex="1" parent="1">
          <mxGeometry x="512.52" y="820.29" width="40" height="40" as="geometry" />
        </mxCell>
        <mxCell id="4zlUSUZVqIUbpaDZJhGe-76" value="" style="endArrow=none;html=1;rounded=0;fontSize=30;strokeWidth=3;" edge="1" parent="1" source="4zlUSUZVqIUbpaDZJhGe-75" target="4zlUSUZVqIUbpaDZJhGe-73">
          <mxGeometry width="50" height="50" relative="1" as="geometry">
            <mxPoint x="490.52" y="640.2099999999999" as="sourcePoint" />
            <mxPoint x="460.0031455224396" y="800.0028586235774" as="targetPoint" />
          </mxGeometry>
        </mxCell>
        <mxCell id="4zlUSUZVqIUbpaDZJhGe-77" value="&lt;span style=&quot;font-size: 18px&quot;&gt;k1 = H&lt;/span&gt;" style="text;html=1;strokeColor=none;fillColor=none;align=center;verticalAlign=middle;whiteSpace=wrap;rounded=0;fontSize=30;fontStyle=1" vertex="1" parent="1">
          <mxGeometry x="317.52" y="685" width="70" height="30" as="geometry" />
        </mxCell>
        <mxCell id="4zlUSUZVqIUbpaDZJhGe-78" value="&lt;span style=&quot;font-size: 18px&quot;&gt;k3 = M&lt;/span&gt;" style="text;html=1;strokeColor=none;fillColor=none;align=center;verticalAlign=middle;whiteSpace=wrap;rounded=0;fontSize=30;fontStyle=1" vertex="1" parent="1">
          <mxGeometry x="412.52000000000004" y="735.29" width="70" height="30" as="geometry" />
        </mxCell>
        <mxCell id="4zlUSUZVqIUbpaDZJhGe-79" value="&lt;span style=&quot;font-size: 18px&quot;&gt;k2 = K&lt;/span&gt;" style="text;html=1;strokeColor=none;fillColor=none;align=center;verticalAlign=middle;whiteSpace=wrap;rounded=0;fontSize=30;fontStyle=1" vertex="1" parent="1">
          <mxGeometry x="497.52000000000004" y="790.29" width="70" height="30" as="geometry" />
        </mxCell>
        <mxCell id="4zlUSUZVqIUbpaDZJhGe-81" value="" style="endArrow=none;html=1;rounded=0;fontSize=30;strokeWidth=3;" edge="1" parent="1" source="4zlUSUZVqIUbpaDZJhGe-80" target="4zlUSUZVqIUbpaDZJhGe-64">
          <mxGeometry width="50" height="50" relative="1" as="geometry">
            <mxPoint x="110" y="710" as="sourcePoint" />
            <mxPoint x="114.9931455224396" y="729.6628586235774" as="targetPoint" />
          </mxGeometry>
        </mxCell>
        <mxCell id="4zlUSUZVqIUbpaDZJhGe-86" value="&lt;span style=&quot;font-size: 18px&quot;&gt;Rm = M&lt;/span&gt;" style="text;html=1;strokeColor=none;fillColor=none;align=center;verticalAlign=middle;whiteSpace=wrap;rounded=0;fontSize=30;fontStyle=1" vertex="1" parent="1">
          <mxGeometry x="45" y="645" width="70" height="30" as="geometry" />
        </mxCell>
        <mxCell id="4zlUSUZVqIUbpaDZJhGe-80" value="" style="ellipse;whiteSpace=wrap;html=1;rounded=1;fontSize=30;strokeColor=default;strokeWidth=2;fillColor=none;" vertex="1" parent="1">
          <mxGeometry x="80" y="680" width="40" height="40" as="geometry" />
        </mxCell>
        <mxCell id="4zlUSUZVqIUbpaDZJhGe-82" value="" style="endArrow=none;html=1;rounded=0;fontSize=18;strokeWidth=3;exitX=0;exitY=1;exitDx=0;exitDy=0;entryX=1;entryY=0;entryDx=0;entryDy=0;" edge="1" parent="1" source="4zlUSUZVqIUbpaDZJhGe-80" target="4zlUSUZVqIUbpaDZJhGe-80">
          <mxGeometry width="50" height="50" relative="1" as="geometry">
            <mxPoint x="160" y="730" as="sourcePoint" />
            <mxPoint x="240" y="780" as="targetPoint" />
          </mxGeometry>
        </mxCell>
        <mxCell id="4zlUSUZVqIUbpaDZJhGe-83" value="" style="endArrow=none;html=1;rounded=0;fontSize=18;strokeWidth=3;exitX=1;exitY=1;exitDx=0;exitDy=0;entryX=0;entryY=0;entryDx=0;entryDy=0;" edge="1" parent="1" source="4zlUSUZVqIUbpaDZJhGe-80" target="4zlUSUZVqIUbpaDZJhGe-80">
          <mxGeometry width="50" height="50" relative="1" as="geometry">
            <mxPoint x="165.85786437626894" y="744.1421356237312" as="sourcePoint" />
            <mxPoint x="194.14213562373095" y="715.8578643762692" as="targetPoint" />
          </mxGeometry>
        </mxCell>
        <mxCell id="4zlUSUZVqIUbpaDZJhGe-90" value="" style="ellipse;whiteSpace=wrap;html=1;rounded=1;fontSize=30;strokeColor=default;strokeWidth=2;fillColor=none;" vertex="1" parent="1">
          <mxGeometry x="150" y="730.29" width="40" height="40" as="geometry" />
        </mxCell>
        <mxCell id="4zlUSUZVqIUbpaDZJhGe-91" value="" style="endArrow=none;html=1;rounded=0;fontSize=18;strokeWidth=3;exitX=0;exitY=1;exitDx=0;exitDy=0;entryX=1;entryY=0;entryDx=0;entryDy=0;" edge="1" parent="1" source="4zlUSUZVqIUbpaDZJhGe-90" target="4zlUSUZVqIUbpaDZJhGe-90">
          <mxGeometry width="50" height="50" relative="1" as="geometry">
            <mxPoint x="150" y="725" as="sourcePoint" />
            <mxPoint x="230" y="775" as="targetPoint" />
          </mxGeometry>
        </mxCell>
        <mxCell id="4zlUSUZVqIUbpaDZJhGe-92" value="" style="endArrow=none;html=1;rounded=0;fontSize=18;strokeWidth=3;exitX=1;exitY=1;exitDx=0;exitDy=0;entryX=0;entryY=0;entryDx=0;entryDy=0;" edge="1" parent="1" source="4zlUSUZVqIUbpaDZJhGe-90" target="4zlUSUZVqIUbpaDZJhGe-90">
          <mxGeometry width="50" height="50" relative="1" as="geometry">
            <mxPoint x="155.85786437626894" y="739.1421356237312" as="sourcePoint" />
            <mxPoint x="184.14213562373095" y="710.8578643762692" as="targetPoint" />
          </mxGeometry>
        </mxCell>
        <mxCell id="4zlUSUZVqIUbpaDZJhGe-93" value="" style="endArrow=none;html=1;rounded=0;fontSize=30;strokeWidth=3;" edge="1" parent="1" source="4zlUSUZVqIUbpaDZJhGe-90" target="4zlUSUZVqIUbpaDZJhGe-68">
          <mxGeometry width="50" height="50" relative="1" as="geometry">
            <mxPoint x="210.00004302881916" y="738.8817523330194" as="sourcePoint" />
            <mxPoint x="249.70121124718912" y="704.9964985167635" as="targetPoint" />
          </mxGeometry>
        </mxCell>
        <mxCell id="4zlUSUZVqIUbpaDZJhGe-94" value="&lt;span style=&quot;font-size: 18px&quot;&gt;k1 = M&lt;/span&gt;" style="text;html=1;strokeColor=none;fillColor=none;align=center;verticalAlign=middle;whiteSpace=wrap;rounded=0;fontSize=30;fontStyle=1" vertex="1" parent="1">
          <mxGeometry x="130" y="690" width="70" height="30" as="geometry" />
        </mxCell>
        <mxCell id="4zlUSUZVqIUbpaDZJhGe-97" value="" style="ellipse;whiteSpace=wrap;html=1;rounded=1;fontSize=30;strokeColor=default;strokeWidth=2;fillColor=none;" vertex="1" parent="1">
          <mxGeometry x="260" y="770.29" width="40" height="40" as="geometry" />
        </mxCell>
        <mxCell id="4zlUSUZVqIUbpaDZJhGe-98" value="" style="endArrow=none;html=1;rounded=0;fontSize=18;strokeWidth=3;exitX=0;exitY=1;exitDx=0;exitDy=0;entryX=1;entryY=0;entryDx=0;entryDy=0;" edge="1" parent="1" source="4zlUSUZVqIUbpaDZJhGe-97" target="4zlUSUZVqIUbpaDZJhGe-97">
          <mxGeometry width="50" height="50" relative="1" as="geometry">
            <mxPoint x="270" y="795.14" as="sourcePoint" />
            <mxPoint x="350" y="845.14" as="targetPoint" />
          </mxGeometry>
        </mxCell>
        <mxCell id="4zlUSUZVqIUbpaDZJhGe-99" value="" style="endArrow=none;html=1;rounded=0;fontSize=18;strokeWidth=3;exitX=1;exitY=1;exitDx=0;exitDy=0;entryX=0;entryY=0;entryDx=0;entryDy=0;" edge="1" parent="1" source="4zlUSUZVqIUbpaDZJhGe-97" target="4zlUSUZVqIUbpaDZJhGe-97">
          <mxGeometry width="50" height="50" relative="1" as="geometry">
            <mxPoint x="275.85786437626894" y="809.2821356237312" as="sourcePoint" />
            <mxPoint x="304.14213562373095" y="780.9978643762691" as="targetPoint" />
          </mxGeometry>
        </mxCell>
        <mxCell id="4zlUSUZVqIUbpaDZJhGe-100" value="&lt;span style=&quot;font-size: 18px&quot;&gt;k1 = K&lt;/span&gt;" style="text;html=1;strokeColor=none;fillColor=none;align=center;verticalAlign=middle;whiteSpace=wrap;rounded=0;fontSize=30;fontStyle=1" vertex="1" parent="1">
          <mxGeometry x="200" y="740.29" width="70" height="30" as="geometry" />
        </mxCell>
        <mxCell id="4zlUSUZVqIUbpaDZJhGe-102" value="" style="ellipse;whiteSpace=wrap;html=1;rounded=1;fontSize=30;strokeColor=default;strokeWidth=2;fillColor=none;" vertex="1" parent="1">
          <mxGeometry x="370" y="840.29" width="40" height="40" as="geometry" />
        </mxCell>
        <mxCell id="4zlUSUZVqIUbpaDZJhGe-103" value="" style="endArrow=none;html=1;rounded=0;fontSize=18;strokeWidth=3;exitX=0;exitY=1;exitDx=0;exitDy=0;entryX=1;entryY=0;entryDx=0;entryDy=0;" edge="1" parent="1" source="4zlUSUZVqIUbpaDZJhGe-102" target="4zlUSUZVqIUbpaDZJhGe-102">
          <mxGeometry width="50" height="50" relative="1" as="geometry">
            <mxPoint x="360" y="850" as="sourcePoint" />
            <mxPoint x="440" y="900" as="targetPoint" />
          </mxGeometry>
        </mxCell>
        <mxCell id="4zlUSUZVqIUbpaDZJhGe-104" value="" style="endArrow=none;html=1;rounded=0;fontSize=18;strokeWidth=3;exitX=1;exitY=1;exitDx=0;exitDy=0;entryX=0;entryY=0;entryDx=0;entryDy=0;" edge="1" parent="1" source="4zlUSUZVqIUbpaDZJhGe-102" target="4zlUSUZVqIUbpaDZJhGe-102">
          <mxGeometry width="50" height="50" relative="1" as="geometry">
            <mxPoint x="365.85786437626894" y="864.1421356237312" as="sourcePoint" />
            <mxPoint x="394.14213562373095" y="835.8578643762692" as="targetPoint" />
          </mxGeometry>
        </mxCell>
        <mxCell id="4zlUSUZVqIUbpaDZJhGe-105" value="&lt;span style=&quot;font-size: 18px&quot;&gt;k2 = M&lt;/span&gt;" style="text;html=1;strokeColor=none;fillColor=none;align=center;verticalAlign=middle;whiteSpace=wrap;rounded=0;fontSize=30;fontStyle=1" vertex="1" parent="1">
          <mxGeometry x="350" y="800" width="70" height="30" as="geometry" />
        </mxCell>
        <mxCell id="4zlUSUZVqIUbpaDZJhGe-106" value="" style="ellipse;whiteSpace=wrap;html=1;rounded=1;fontSize=30;strokeColor=default;strokeWidth=2;fillColor=none;" vertex="1" parent="1">
          <mxGeometry x="457.52" y="895.2899999999998" width="40" height="40" as="geometry" />
        </mxCell>
        <mxCell id="4zlUSUZVqIUbpaDZJhGe-107" value="" style="endArrow=none;html=1;rounded=0;fontSize=18;strokeWidth=3;exitX=0;exitY=1;exitDx=0;exitDy=0;entryX=1;entryY=0;entryDx=0;entryDy=0;" edge="1" parent="1" source="4zlUSUZVqIUbpaDZJhGe-106" target="4zlUSUZVqIUbpaDZJhGe-106">
          <mxGeometry width="50" height="50" relative="1" as="geometry">
            <mxPoint x="452.52" y="905.29" as="sourcePoint" />
            <mxPoint x="532.52" y="955.29" as="targetPoint" />
          </mxGeometry>
        </mxCell>
        <mxCell id="4zlUSUZVqIUbpaDZJhGe-108" value="" style="endArrow=none;html=1;rounded=0;fontSize=18;strokeWidth=3;exitX=1;exitY=1;exitDx=0;exitDy=0;entryX=0;entryY=0;entryDx=0;entryDy=0;" edge="1" parent="1" source="4zlUSUZVqIUbpaDZJhGe-106" target="4zlUSUZVqIUbpaDZJhGe-106">
          <mxGeometry width="50" height="50" relative="1" as="geometry">
            <mxPoint x="458.3778643762689" y="919.4321356237311" as="sourcePoint" />
            <mxPoint x="486.66213562373093" y="891.1478643762691" as="targetPoint" />
          </mxGeometry>
        </mxCell>
        <mxCell id="4zlUSUZVqIUbpaDZJhGe-109" value="&lt;span style=&quot;font-size: 18px&quot;&gt;Km = M&lt;/span&gt;" style="text;html=1;strokeColor=none;fillColor=none;align=center;verticalAlign=middle;whiteSpace=wrap;rounded=0;fontSize=30;fontStyle=1" vertex="1" parent="1">
          <mxGeometry x="427.52" y="860.29" width="70" height="30" as="geometry" />
        </mxCell>
        <mxCell id="4zlUSUZVqIUbpaDZJhGe-110" value="" style="endArrow=none;html=1;rounded=0;fontSize=30;strokeWidth=3;" edge="1" parent="1" source="4zlUSUZVqIUbpaDZJhGe-97" target="4zlUSUZVqIUbpaDZJhGe-68">
          <mxGeometry width="50" height="50" relative="1" as="geometry">
            <mxPoint x="437.4201114140212" y="790.8274672408634" as="sourcePoint" />
            <mxPoint x="380.1378584653701" y="759.7563120112436" as="targetPoint" />
          </mxGeometry>
        </mxCell>
        <mxCell id="4zlUSUZVqIUbpaDZJhGe-111" value="" style="endArrow=none;html=1;rounded=0;fontSize=30;strokeWidth=3;" edge="1" parent="1" source="4zlUSUZVqIUbpaDZJhGe-102" target="4zlUSUZVqIUbpaDZJhGe-73">
          <mxGeometry width="50" height="50" relative="1" as="geometry">
            <mxPoint x="322.52067048463095" y="799.8340771156347" as="sourcePoint" />
            <mxPoint x="349.94555701116496" y="765.8426005388224" as="targetPoint" />
          </mxGeometry>
        </mxCell>
        <mxCell id="4zlUSUZVqIUbpaDZJhGe-112" value="" style="endArrow=none;html=1;rounded=0;fontSize=30;strokeWidth=3;" edge="1" parent="1" source="4zlUSUZVqIUbpaDZJhGe-106" target="4zlUSUZVqIUbpaDZJhGe-75">
          <mxGeometry width="50" height="50" relative="1" as="geometry">
            <mxPoint x="412.32071840391586" y="854.5356387622057" as="sourcePoint" />
            <mxPoint x="442.7180408403151" y="816.043390824407" as="targetPoint" />
          </mxGeometry>
        </mxCell>
        <mxCell id="4zlUSUZVqIUbpaDZJhGe-113" value="" style="ellipse;whiteSpace=wrap;html=1;rounded=1;fontSize=30;strokeColor=default;strokeWidth=2;fillColor=none;" vertex="1" parent="1">
          <mxGeometry x="512.52" y="820.29" width="40" height="40" as="geometry" />
        </mxCell>
        <mxCell id="4zlUSUZVqIUbpaDZJhGe-114" value="" style="endArrow=none;html=1;rounded=0;fontSize=30;strokeWidth=3;" edge="1" parent="1" source="4zlUSUZVqIUbpaDZJhGe-116">
          <mxGeometry width="50" height="50" relative="1" as="geometry">
            <mxPoint x="605.2963112770584" y="880.3302579610829" as="sourcePoint" />
            <mxPoint x="552.5248628424775" y="850.2127787671302" as="targetPoint" />
          </mxGeometry>
        </mxCell>
        <mxCell id="4zlUSUZVqIUbpaDZJhGe-115" value="&lt;span style=&quot;font-size: 18px&quot;&gt;Km = K&lt;/span&gt;" style="text;html=1;strokeColor=none;fillColor=none;align=center;verticalAlign=middle;whiteSpace=wrap;rounded=0;fontSize=30;fontStyle=1" vertex="1" parent="1">
          <mxGeometry x="572.6400000000001" y="825.29" width="70" height="30" as="geometry" />
        </mxCell>
        <mxCell id="4zlUSUZVqIUbpaDZJhGe-116" value="" style="ellipse;whiteSpace=wrap;html=1;rounded=1;fontSize=30;strokeColor=default;strokeWidth=2;fillColor=none;" vertex="1" parent="1">
          <mxGeometry x="587.64" y="860.29" width="40" height="40" as="geometry" />
        </mxCell>
        <mxCell id="4zlUSUZVqIUbpaDZJhGe-122" value="" style="endArrow=none;html=1;rounded=0;fontSize=30;strokeWidth=3;" edge="1" parent="1" source="4zlUSUZVqIUbpaDZJhGe-124" target="4zlUSUZVqIUbpaDZJhGe-116">
          <mxGeometry width="50" height="50" relative="1" as="geometry">
            <mxPoint x="682.7763112770584" y="932.8302579610829" as="sourcePoint" />
            <mxPoint x="630.0048628424772" y="902.7127787671302" as="targetPoint" />
          </mxGeometry>
        </mxCell>
        <mxCell id="4zlUSUZVqIUbpaDZJhGe-123" value="&lt;span style=&quot;font-size: 18px&quot;&gt;k4 = M&lt;/span&gt;" style="text;html=1;strokeColor=none;fillColor=none;align=center;verticalAlign=middle;whiteSpace=wrap;rounded=0;fontSize=30;fontStyle=1" vertex="1" parent="1">
          <mxGeometry x="650.1200000000001" y="877.79" width="70" height="30" as="geometry" />
        </mxCell>
        <mxCell id="4zlUSUZVqIUbpaDZJhGe-124" value="" style="ellipse;whiteSpace=wrap;html=1;rounded=1;fontSize=30;strokeColor=default;strokeWidth=2;fillColor=none;" vertex="1" parent="1">
          <mxGeometry x="665.12" y="912.79" width="40" height="40" as="geometry" />
        </mxCell>
        <mxCell id="4zlUSUZVqIUbpaDZJhGe-125" value="" style="endArrow=none;html=1;rounded=0;fontSize=30;strokeWidth=3;" edge="1" parent="1" source="4zlUSUZVqIUbpaDZJhGe-127" target="4zlUSUZVqIUbpaDZJhGe-124">
          <mxGeometry width="50" height="50" relative="1" as="geometry">
            <mxPoint x="763.7063112770584" y="985.040257961083" as="sourcePoint" />
            <mxPoint x="705.119515487833" y="943.7300283667435" as="targetPoint" />
          </mxGeometry>
        </mxCell>
        <mxCell id="4zlUSUZVqIUbpaDZJhGe-126" value="&lt;span style=&quot;font-size: 18px&quot;&gt;k5 = K&lt;/span&gt;" style="text;html=1;strokeColor=none;fillColor=none;align=center;verticalAlign=middle;whiteSpace=wrap;rounded=0;fontSize=30;fontStyle=1" vertex="1" parent="1">
          <mxGeometry x="731.0500000000002" y="930" width="70" height="30" as="geometry" />
        </mxCell>
        <mxCell id="4zlUSUZVqIUbpaDZJhGe-127" value="" style="ellipse;whiteSpace=wrap;html=1;rounded=1;fontSize=30;strokeColor=default;strokeWidth=2;fillColor=none;" vertex="1" parent="1">
          <mxGeometry x="746.05" y="965" width="40" height="40" as="geometry" />
        </mxCell>
        <mxCell id="4zlUSUZVqIUbpaDZJhGe-128" value="" style="endArrow=none;html=1;rounded=0;fontSize=30;strokeWidth=3;" edge="1" parent="1" source="4zlUSUZVqIUbpaDZJhGe-130" target="4zlUSUZVqIUbpaDZJhGe-127">
          <mxGeometry width="50" height="50" relative="1" as="geometry">
            <mxPoint x="847.7963112770584" y="1035.040257961083" as="sourcePoint" />
            <mxPoint x="786.0475827792849" y="993.5833222944138" as="targetPoint" />
          </mxGeometry>
        </mxCell>
        <mxCell id="4zlUSUZVqIUbpaDZJhGe-129" value="&lt;span style=&quot;font-size: 18px&quot;&gt;k6 = H&lt;/span&gt;" style="text;html=1;strokeColor=none;fillColor=none;align=center;verticalAlign=middle;whiteSpace=wrap;rounded=0;fontSize=30;fontStyle=1" vertex="1" parent="1">
          <mxGeometry x="815.1400000000002" y="980" width="70" height="30" as="geometry" />
        </mxCell>
        <mxCell id="4zlUSUZVqIUbpaDZJhGe-130" value="" style="ellipse;whiteSpace=wrap;html=1;rounded=1;fontSize=30;strokeColor=default;strokeWidth=2;fillColor=none;" vertex="1" parent="1">
          <mxGeometry x="830.14" y="1015" width="40" height="40" as="geometry" />
        </mxCell>
        <mxCell id="4zlUSUZVqIUbpaDZJhGe-143" value="" style="ellipse;whiteSpace=wrap;html=1;rounded=1;fontSize=30;strokeColor=default;strokeWidth=2;fillColor=none;" vertex="1" parent="1">
          <mxGeometry x="665.12" y="1040" width="40" height="40" as="geometry" />
        </mxCell>
        <mxCell id="4zlUSUZVqIUbpaDZJhGe-144" value="" style="endArrow=none;html=1;rounded=0;fontSize=18;strokeWidth=3;exitX=0;exitY=1;exitDx=0;exitDy=0;entryX=1;entryY=0;entryDx=0;entryDy=0;" edge="1" parent="1" source="4zlUSUZVqIUbpaDZJhGe-143" target="4zlUSUZVqIUbpaDZJhGe-143">
          <mxGeometry width="50" height="50" relative="1" as="geometry">
            <mxPoint x="547.52" y="980" as="sourcePoint" />
            <mxPoint x="627.52" y="1030" as="targetPoint" />
          </mxGeometry>
        </mxCell>
        <mxCell id="4zlUSUZVqIUbpaDZJhGe-145" value="" style="endArrow=none;html=1;rounded=0;fontSize=18;strokeWidth=3;exitX=1;exitY=1;exitDx=0;exitDy=0;entryX=0;entryY=0;entryDx=0;entryDy=0;" edge="1" parent="1" source="4zlUSUZVqIUbpaDZJhGe-143" target="4zlUSUZVqIUbpaDZJhGe-143">
          <mxGeometry width="50" height="50" relative="1" as="geometry">
            <mxPoint x="553.3778643762689" y="994.1421356237312" as="sourcePoint" />
            <mxPoint x="581.6621356237309" y="965.8578643762692" as="targetPoint" />
          </mxGeometry>
        </mxCell>
        <mxCell id="4zlUSUZVqIUbpaDZJhGe-146" value="" style="ellipse;whiteSpace=wrap;html=1;rounded=1;fontSize=30;strokeColor=default;strokeWidth=2;fillColor=none;" vertex="1" parent="1">
          <mxGeometry x="775.14" y="1070" width="40" height="40" as="geometry" />
        </mxCell>
        <mxCell id="4zlUSUZVqIUbpaDZJhGe-147" value="" style="endArrow=none;html=1;rounded=0;fontSize=18;strokeWidth=3;exitX=0;exitY=1;exitDx=0;exitDy=0;entryX=1;entryY=0;entryDx=0;entryDy=0;" edge="1" parent="1" source="4zlUSUZVqIUbpaDZJhGe-146" target="4zlUSUZVqIUbpaDZJhGe-146">
          <mxGeometry width="50" height="50" relative="1" as="geometry">
            <mxPoint x="492.52" y="1030" as="sourcePoint" />
            <mxPoint x="572.52" y="1080" as="targetPoint" />
          </mxGeometry>
        </mxCell>
        <mxCell id="4zlUSUZVqIUbpaDZJhGe-148" value="" style="endArrow=none;html=1;rounded=0;fontSize=18;strokeWidth=3;exitX=1;exitY=1;exitDx=0;exitDy=0;entryX=0;entryY=0;entryDx=0;entryDy=0;" edge="1" parent="1" source="4zlUSUZVqIUbpaDZJhGe-146" target="4zlUSUZVqIUbpaDZJhGe-146">
          <mxGeometry width="50" height="50" relative="1" as="geometry">
            <mxPoint x="498.3778643762689" y="1044.142135623731" as="sourcePoint" />
            <mxPoint x="526.6621356237309" y="1015.8578643762692" as="targetPoint" />
          </mxGeometry>
        </mxCell>
        <mxCell id="4zlUSUZVqIUbpaDZJhGe-149" value="" style="ellipse;whiteSpace=wrap;html=1;rounded=1;fontSize=30;strokeColor=default;strokeWidth=2;fillColor=none;" vertex="1" parent="1">
          <mxGeometry x="610.1199999999999" y="980" width="40" height="40" as="geometry" />
        </mxCell>
        <mxCell id="4zlUSUZVqIUbpaDZJhGe-150" value="" style="endArrow=none;html=1;rounded=0;fontSize=18;strokeWidth=3;exitX=0;exitY=1;exitDx=0;exitDy=0;entryX=1;entryY=0;entryDx=0;entryDy=0;" edge="1" parent="1" source="4zlUSUZVqIUbpaDZJhGe-149" target="4zlUSUZVqIUbpaDZJhGe-149">
          <mxGeometry width="50" height="50" relative="1" as="geometry">
            <mxPoint x="605.1199999999999" y="990" as="sourcePoint" />
            <mxPoint x="685.1199999999999" y="1040" as="targetPoint" />
          </mxGeometry>
        </mxCell>
        <mxCell id="4zlUSUZVqIUbpaDZJhGe-151" value="" style="endArrow=none;html=1;rounded=0;fontSize=18;strokeWidth=3;exitX=1;exitY=1;exitDx=0;exitDy=0;entryX=0;entryY=0;entryDx=0;entryDy=0;" edge="1" parent="1" source="4zlUSUZVqIUbpaDZJhGe-149" target="4zlUSUZVqIUbpaDZJhGe-149">
          <mxGeometry width="50" height="50" relative="1" as="geometry">
            <mxPoint x="610.9778643762688" y="1004.1421356237311" as="sourcePoint" />
            <mxPoint x="639.262135623731" y="975.8578643762692" as="targetPoint" />
          </mxGeometry>
        </mxCell>
        <mxCell id="4zlUSUZVqIUbpaDZJhGe-152" value="" style="endArrow=none;html=1;rounded=0;fontSize=30;strokeWidth=3;" edge="1" parent="1" source="4zlUSUZVqIUbpaDZJhGe-149" target="4zlUSUZVqIUbpaDZJhGe-124">
          <mxGeometry width="50" height="50" relative="1" as="geometry">
            <mxPoint x="759.233263749062" y="984.1742260384585" as="sourcePoint" />
            <mxPoint x="711.9381571220952" y="953.6135664647147" as="targetPoint" />
          </mxGeometry>
        </mxCell>
        <mxCell id="4zlUSUZVqIUbpaDZJhGe-154" value="&lt;span style=&quot;font-size: 18px&quot;&gt;k5 = M&lt;/span&gt;" style="text;html=1;strokeColor=none;fillColor=none;align=center;verticalAlign=middle;whiteSpace=wrap;rounded=0;fontSize=30;fontStyle=1" vertex="1" parent="1">
          <mxGeometry x="580.1200000000001" y="950" width="70" height="30" as="geometry" />
        </mxCell>
        <mxCell id="4zlUSUZVqIUbpaDZJhGe-155" value="" style="endArrow=none;html=1;rounded=0;fontSize=30;strokeWidth=3;" edge="1" parent="1" source="4zlUSUZVqIUbpaDZJhGe-143" target="4zlUSUZVqIUbpaDZJhGe-127">
          <mxGeometry width="50" height="50" relative="1" as="geometry">
            <mxPoint x="842.9358429625793" y="1034.8011284628465" as="sourcePoint" />
            <mxPoint x="793.2358576881961" y="1005.2296771953547" as="targetPoint" />
          </mxGeometry>
        </mxCell>
        <mxCell id="4zlUSUZVqIUbpaDZJhGe-156" value="" style="endArrow=none;html=1;rounded=0;fontSize=30;strokeWidth=3;" edge="1" parent="1" source="4zlUSUZVqIUbpaDZJhGe-146" target="4zlUSUZVqIUbpaDZJhGe-127">
          <mxGeometry width="50" height="50" relative="1" as="geometry">
            <mxPoint x="709.7853631367493" y="1056.4012087277413" as="sourcePoint" />
            <mxPoint x="761.3734450805964" y="1008.5867117323191" as="targetPoint" />
          </mxGeometry>
        </mxCell>
        <mxCell id="4zlUSUZVqIUbpaDZJhGe-157" value="&lt;span style=&quot;font-size: 18px&quot;&gt;k6 = M&lt;/span&gt;" style="text;html=1;strokeColor=none;fillColor=none;align=center;verticalAlign=middle;whiteSpace=wrap;rounded=0;fontSize=30;fontStyle=1" vertex="1" parent="1">
          <mxGeometry x="642.6400000000002" y="1010" width="70" height="30" as="geometry" />
        </mxCell>
        <mxCell id="4zlUSUZVqIUbpaDZJhGe-158" value="&lt;span style=&quot;font-size: 18px&quot;&gt;k6 = K&lt;/span&gt;" style="text;html=1;strokeColor=none;fillColor=none;align=center;verticalAlign=middle;whiteSpace=wrap;rounded=0;fontSize=30;fontStyle=1" vertex="1" parent="1">
          <mxGeometry x="720.1200000000002" y="1040" width="70" height="30" as="geometry" />
        </mxCell>
        <mxCell id="4zlUSUZVqIUbpaDZJhGe-160" value="&lt;i&gt;Diagrams.net&lt;/i&gt;" style="text;html=1;strokeColor=none;fillColor=none;align=center;verticalAlign=middle;whiteSpace=wrap;rounded=0;fontSize=18;fontStyle=1" vertex="1" parent="1">
          <mxGeometry x="60" y="1050" width="150" height="40" as="geometry" />
        </mxCell>
      </root>
    </mxGraphModel>
  </diagram>
</mxfile>
